<?xml version="1.0" encoding="utf-8"?>
<!-- Generator: Adobe Illustrator 17.1.0, SVG Export Plug-In . SVG Version: 6.00 Build 0)  -->
<!DOCTYPE svg PUBLIC "-//W3C//DTD SVG 1.1//EN" "http://www.w3.org/Graphics/SVG/1.1/DTD/svg11.dtd">
<svg version="1.1" id="Layer_1" xmlns="http://www.w3.org/2000/svg" xmlns:xlink="http://www.w3.org/1999/xlink" x="0px" y="0px"
	 viewBox="0 0 430 132" enable-background="new 0 0 430 132" xml:space="preserve">
<g>
	<circle fill="#6C4FBA" cx="46" cy="93" r="10"/>
	<g>
		<path fill="#6C4FBA" d="M45.3,94.7c1.3-2.3,2.9-4.5,4.6-6.4C41.6,80.7,36,67.3,36,52C36,28.3,49.4,9,66,9
			c13.2,0,24.4,12.3,28.4,29.3c2.3-0.8,4.8-1.3,7.3-1.3c0.2,0,0.4,0,0.6,0C97.6,16.2,83.1,1,66,1C45,1,28,23.8,28,52
			C28,69.9,34.9,85.6,45.3,94.7z"/>
	</g>
</g>
<g>
	<circle fill="#6C4FBA" cx="94.8" cy="86" r="10"/>
	<g>
		<path fill="#6C4FBA" d="M96.7,85.7c-2.7,0-5.3-0.2-7.9-0.8c-2.4,11.1-11.3,22.6-24.5,30.2c-20.6,11.9-44,9.9-52.2-4.5
			c-6.6-11.5-1.6-27.3,11.2-39.3c-1.9-1.6-3.5-3.5-4.8-5.7c-0.1-0.2-0.2-0.3-0.3-0.5C2.5,79.8-3.4,99.9,5.1,114.7
			c10.5,18.2,38.8,21.5,63.2,7.4C83.8,113.1,94,99.3,96.7,85.7z"/>
	</g>
</g>
<g>
	<circle fill="#6C4FBA" cx="61.2" cy="51.3" r="10"/>
	<g>
		<path fill="#6C4FBA" d="M60.1,49.8c1.4,2.3,2.5,4.7,3.3,7.2c10.8-3.4,25.2-1.5,38.4,6.1c20.6,11.9,30.5,33.1,22.2,47.5
			c-6.6,11.5-22.9,15-39.6,10c-0.4,2.4-1.3,4.8-2.5,7c-0.1,0.2-0.2,0.3-0.3,0.5c20.4,6.3,40.8,1.4,49.4-13.5
			c10.5-18.2-0.8-44.3-25.2-58.4C90.2,47.2,73.1,45.3,60.1,49.8z"/>
	</g>
</g>
<path fill="#FFFFFF" d="M48.4,74.2l-1.9-2.4c0,0,4.4-3.8,6.9-6.1c3.4-3.1,7.9-4.9,10.2,0.3c1.6,3.6,1,9.5,3.6,16.5
	c1,2.7,2.1,4.6,5.8-1.3c3.7-5.9,4.9-11.9-2.8-9.4c1.8-6.8,7.9-12.2,14.5-8.9c2.9,1.5,3.7,6,2.3,10.8c-1.8,6-10.3,17.7-15.8,21.6
	c-7.3,5.3-10.3,1.7-12.2-4.3c-1.6-5-4.4-20.8-8-18.5C49.6,73.5,48.4,74.2,48.4,74.2z"/>
<g>
	<path fill="#FFFFFF" d="M158.8,80.3l1.2,5.1h0l1.2-5.2l8.1-23h4l-12.7,34.1h-1.8l-13-34.1h4.4L158.8,80.3z"/>
	<path fill="#FFFFFF" d="M178.3,57.2h4v33.6h-4V57.2z"/>
	<path fill="#FFFFFF" d="M217.1,68.2l0.5-5h-0.2l-1.8,4.6L206.8,83h-1.2l-9.3-15.2l-1.7-4.6h-0.2l0.7,5v22.6h-3.7V57.2h3l10.5,17.2
		l1.6,3.7h0.1l1.5-3.8l10-17.1h3.1v33.6h-4V68.2z"/>
	<path fill="#FFFFFF" d="M229.3,57.2h18.3v3.6h-14.3v11h13.1v3.6h-13.1v12h14.5v3.6h-18.5V57.2z"/>
	<path fill="#FFFFFF" d="M253.6,74c0-5.6,1.2-9.9,3.6-12.9c2.4-3,5.7-4.5,10.1-4.5c2.4,0,4.4,0.4,6.1,1.2c1.7,0.8,3.2,2,4.3,3.5
		c1.1,1.5,2,3.3,2.5,5.5c0.5,2.1,0.8,4.5,0.8,7.1c0,5.6-1.2,9.9-3.6,12.9c-2.4,3-5.8,4.5-10.2,4.5c-2.3,0-4.4-0.4-6.1-1.2
		c-1.7-0.8-3.1-2-4.3-3.5c-1.1-1.5-2-3.3-2.5-5.5C253.9,79,253.6,76.6,253.6,74z M257.8,74c0,1.9,0.2,3.6,0.6,5.3
		c0.4,1.7,0.9,3.1,1.7,4.4c0.8,1.3,1.8,2.3,3,3c1.2,0.8,2.6,1.1,4.2,1.1c3,0,5.3-1.1,7-3.4c1.7-2.3,2.5-5.7,2.5-10.4
		c0-1.8-0.2-3.6-0.6-5.3c-0.4-1.7-0.9-3.2-1.7-4.4c-0.8-1.3-1.8-2.3-3-3c-1.2-0.8-2.6-1.1-4.3-1.1c-2.9,0-5.3,1.1-6.9,3.4
		C258.7,65.8,257.8,69.3,257.8,74z"/>
	<path fill="#FFFFFF" d="M287.8,57.5c1.2-0.2,2.6-0.4,4.2-0.5c1.6-0.1,3-0.2,4.3-0.2c1.5,0,2.9,0.2,4.2,0.5c1.3,0.3,2.5,0.8,3.5,1.6
		c1,0.7,1.8,1.7,2.4,2.9c0.6,1.2,0.9,2.6,0.9,4.3c0,2.6-0.7,4.8-2.2,6.4c-1.4,1.6-3.3,2.7-5.5,3.3l2.3,1.8l8.4,13.3h-4.7l-9.3-14.5
		l-4.7-0.7v15.2h-4V57.5z M296.5,60.3c-0.4,0-0.8,0-1.3,0s-0.9,0-1.3,0c-0.4,0-0.8,0.1-1.2,0.1c-0.4,0-0.7,0.1-0.9,0.1v12.4h3.7
		c2.2,0,4-0.5,5.5-1.6c1.4-1.1,2.2-2.8,2.2-5.1c0-1.7-0.6-3.2-1.8-4.3C300.2,60.8,298.6,60.3,296.5,60.3z"/>
	<path fill="#FFFFFF" d="M316.4,57.2h18.3v3.6h-14.3v11h13.1v3.6h-13.1v12h14.5v3.6h-18.5V57.2z"/>
	<path fill="#FFFFFF" d="M342.1,57.2c0.6-0.1,1.3-0.2,2-0.2c0.8,0,1.5-0.1,2.4-0.1c0.8,0,1.6,0,2.4,0c0.8,0,1.5,0,2.2,0
		c2.7,0,5,0.4,7,1.2c2,0.8,3.6,2,4.9,3.5c1.3,1.5,2.2,3.3,2.9,5.4c0.6,2.1,0.9,4.4,0.9,6.9c0,2.3-0.3,4.5-0.9,6.6
		c-0.6,2.1-1.5,4-2.8,5.6c-1.3,1.6-2.9,2.9-5,3.9c-2,1-4.5,1.5-7.4,1.5c-0.5,0-1.2,0-2,0c-0.8,0-1.7,0-2.5-0.1
		c-0.9,0-1.7-0.1-2.4-0.1c-0.7,0-1.3-0.1-1.6-0.1V57.2z M351.2,60.4c-0.4,0-0.9,0-1.4,0c-0.5,0-1,0-1.5,0c-0.5,0-0.9,0.1-1.3,0.1
		c-0.4,0-0.7,0.1-0.9,0.1v26.9c0.2,0,0.5,0.1,0.9,0.1c0.4,0,0.9,0,1.4,0c0.5,0,0.9,0,1.4,0c0.4,0,0.8,0,0.9,0c2.2,0,4.1-0.4,5.6-1.2
		c1.5-0.8,2.7-1.8,3.6-3.1s1.6-2.8,1.9-4.5c0.4-1.7,0.6-3.4,0.6-5.2c0-1.6-0.2-3.1-0.5-4.7c-0.4-1.6-1-3-1.8-4.3
		c-0.9-1.3-2-2.3-3.5-3.1C355.2,60.8,353.4,60.4,351.2,60.4z"/>
	<path fill="#FFFFFF" d="M392.8,57.2h3.8v22.4c0,2-0.3,3.8-0.8,5.2c-0.5,1.5-1.3,2.7-2.3,3.6c-1,0.9-2.2,1.6-3.5,2.1
		c-1.4,0.4-2.9,0.7-4.6,0.7c-4,0-7-0.9-9-2.7c-2-1.8-3-4.5-3-8.2V57.2h4v21.3c0,1.7,0.2,3.1,0.5,4.3c0.3,1.2,0.8,2.1,1.5,2.8
		s1.5,1.2,2.5,1.6c1,0.3,2.2,0.5,3.5,0.5c2.6,0,4.4-0.7,5.6-2.1c1.1-1.4,1.7-3.8,1.7-7V57.2z"/>
	<path fill="#FFFFFF" d="M413.2,73.7l-10.2-16.5h4.8l6.8,11.4l1.2,2.7l1.2-2.7l7.2-11.4h4.4L418,73.4l11,17.4h-4.7l-7.6-12l-1.3-2.9
		l-1.2,2.9l-7.8,12H402L413.2,73.7z"/>
</g>
</svg>
