<svg xmlns="http://www.w3.org/2000/svg" version="1.1" x="0" y="0" viewBox="0 0 16 16" enable-background="new 0 0 16 16" xml:space="preserve"><image overflow="visible" width="3440" height="1440" transform="matrix(1 0 0 1 -2045.0333 866.1578)"/><path fill="#5379B7" d="M14 2h-1v3h-3V2H6v3H3V2H2C1.4 2 1 2.4 1 3v11c0 0.6 0.4 1 1 1h12c0.6 0 1-0.4 1-1V3C15 2.4 14.6 2 14 2zM14 14H2V6h12V14z"/><rect x="4" y="1" fill="#5379B7" width="1" height="3"/><rect x="11" y="1" fill="#5379B7" width="1" height="3"/></svg>