<svg
	viewBox="0 0 16 16" xmlns="http://www.w3.org/2000/svg">
	<g display="none">
		<g display="inline">
			<path fill="#5379B7" d="M0.5 15.5V14c0-1.3 2.4-2.5 5.6-2.9l0.4 0v-2L6.3 8.9C5.2 8.1 4.5 6.6 4.5 5c0-2.5 1.6-4.5 3.5-4.5s3.5 2 3.5 4.5c0 1.6-0.7 3.1-1.8 3.9L9.5 9.1v2l0.4 0c3.2 0.4 5.6 1.6 5.6 2.9v1.5H0.5zM8 1c1.7 0 3 1.8 3 4 0 1.4-0.6 2.8-1.6 3.5L9 8.8v0.5 1.3 0.9l0.9 0.1C13.2 12 15 13.2 15 14v1H1v-1c0-0.8 1.8-2 5.1-2.4L7 11.5v-0.9V9.3 8.8L6.6 8.5C5.6 7.8 5 6.4 5 5 5 2.8 6.3 1 8 1M8 0C5.8 0 4 2.2 4 5c0 1.8 0.8 3.4 2 4.3v1.3C2.6 11 0 12.4 0 14v2h16v-2c0-1.6-2.6-3-6-3.4V9.3c1.2-0.9 2-2.5 2-4.3C12 2.2 10.2 0 8 0L8 0z"/>
		</g>
	</g>
	<path fill="#231F20" d="M12.6 11.2C13.5 10 14 8.6 14 7c0-3.9-3.1-7-7-7S0 3.1 0 7c0 3.9 3.1 7 7 7 1.6 0 3-0.5 4.2-1.4l3.4 3.4 1.4-1.4L12.6 11.2zM7 13c-3.3 0-6-2.7-6-6s2.7-6 6-6 6 2.7 6 6S10.3 13 7 13z"/>
</svg>